<?xml version="1.0" encoding="iso-8859-1"?>
<!-- Generator: Adobe Illustrator 16.0.0, SVG Export Plug-In . SVG Version: 6.00 Build 0)  -->
<!DOCTYPE svg PUBLIC "-//W3C//DTD SVG 1.1//EN" "http://www.w3.org/Graphics/SVG/1.1/DTD/svg11.dtd">
<svg version="1.1" id="Capa_1" xmlns="http://www.w3.org/2000/svg" xmlns:xlink="http://www.w3.org/1999/xlink" x="0px" y="0px"
	 width="432.585px" height="432.585px" viewBox="0 0 432.585 432.585" style="enable-background:new 0 0 432.585 432.585;"
	 xml:space="preserve">
<g>
	<g>
		<path d="M373.532,344.491H265.587v19.641c0,27.827-23.074,50.469-51.467,50.469h-21.822c-28.375,0-51.461-22.642-51.461-50.469
			v-19.641H34.227c-6.404,0-12.211-1.419-17.236-3.936c-0.347,9.754-0.793,22.35-1.282,36.146
			c-1.106,30.865,24.676,55.884,57.537,55.884h291.683c32.872,0,59.53-26.642,59.53-59.522c0,0,0-19.84,0-44.321
			c0-18.719-4.004-36.997-9.646-46.795l0.83,18.522c0.505,11.713-3.595,22.754-11.569,31.094
			C396.102,339.898,385.253,344.491,373.532,344.491z"/>
		<path d="M333.161,130.346c-11.87-5.418-16.322-12.505-23.72-24.241c-11.293-17.947-28.377-45.072-84.854-84.934
			c-73.646-51.992-117.571,2.741-152.833,46.73C58.73,84.154,46.421,99.495,33.86,108.545
			c-44.887,32.322-19.596,116.516-9.093,145.658c-2.557,10.25-7.56,29.859-12.645,47.439c-4.883,16.852,4.152,30.092,21.7,30.092
			h118.383c0,7.029,0,18.434,0,31.414c0,21.376,17.771,38.691,39.682,38.691h21.826c21.923,0,39.691-17.315,39.691-38.691v-31.414
			h119.718c17.533,0,31.118-14.198,30.345-31.719l-1.623-36.805l1.246,0.413C423.292,202.984,374.357,149.188,333.161,130.346z
			 M232.747,371.653h-60.188v-28.773h60.188V371.653z M391.645,241.913l-352.848,4.985c-12.421-35.025-27.978-102.412,4.232-125.611
			c14.3-10.299,27.264-26.457,40.98-43.561c35.953-44.851,69.921-87.211,131.525-43.729c53.916,38.061,69.356,62.578,80.626,80.475
			c8.011,12.733,14.338,22.792,30.468,30.164C351.956,156.211,396.455,193.605,391.645,241.913z"/>
	</g>
</g>
<g>
</g>
<g>
</g>
<g>
</g>
<g>
</g>
<g>
</g>
<g>
</g>
<g>
</g>
<g>
</g>
<g>
</g>
<g>
</g>
<g>
</g>
<g>
</g>
<g>
</g>
<g>
</g>
<g>
</g>
</svg>
